<svg width="100" height="55" viewBox="0 0 100 55" fill="none" xmlns="http://www.w3.org/2000/svg">
<path fill-rule="evenodd" clip-rule="evenodd" d="M18.7825 1.72499C19.6431 3.26309 20.2437 4.1476 21.4932 5.71733C23.5216 8.26538 26.4265 11.3917 29.1456 13.953C30.056 14.8105 31.1012 15.8729 31.4682 16.3139C34.1081 19.4855 35.2954 23.6818 34.7398 27.8766L34.6126 28.8373L34.9051 29.6139C36.9659 35.0858 36.2788 41.2431 33.0686 46.0709C29.3304 51.6929 22.8965 54.782 16.2903 54.1268C9.5498 53.4583 3.73317 49.0521 1.23475 42.7222C0.371066 40.5339 -0.00448114 38.504 4.03191e-05 36.0479C0.00438446 33.678 0.358123 31.676 1.13129 29.6456C1.44575 28.8199 1.44779 28.8056 1.33724 28.2201C1.26826 27.855 1.22757 26.9129 1.23085 25.7577C1.23537 24.1753 1.26667 23.7426 1.43387 22.9513C1.74053 21.5009 2.1409 20.3356 2.75024 19.1207C3.61499 17.3964 4.27557 16.5366 6.10081 14.7595C10.0938 10.872 12.4533 8.35536 14.4522 5.85177C15.7256 4.25692 16.4896 3.13658 17.3575 1.59135C17.6947 0.991048 17.9991 0.499969 18.0338 0.499969C18.0687 0.499969 18.4055 1.05127 18.7825 1.72499ZM9.78278 15.492C13.5797 11.7264 15.5374 9.59125 17.2543 7.34344C17.6543 6.81985 18.0015 6.38998 18.0258 6.38828C18.0502 6.38668 18.2358 6.61467 18.4382 6.89495C19.8595 8.86345 22.5245 11.7852 26.3457 15.564C29.4843 18.6679 29.8524 19.1043 30.6067 20.615C30.9452 21.293 31.3579 22.509 31.5534 23.4044C31.7474 24.2928 31.8197 26.5593 31.6844 27.5078C31.3659 29.7405 30.5438 31.7467 29.2069 33.5533C28.5341 34.4624 23.1414 39.928 23.0023 39.8417C22.9439 39.8053 22.2376 38.8926 21.4328 37.8133L19.9694 35.851L20.1804 35.5709C22.576 32.3879 23.7559 30.7281 24.0502 30.1269C24.7797 28.6363 25.0701 27.3381 25.0672 25.5796C25.0649 24.2751 24.9089 23.364 24.4874 22.1931C24.1458 21.2447 23.7928 20.6661 22.627 19.1444C20.6272 16.5342 19.8051 15.1556 18.7743 12.684C18.3912 11.7656 18.0489 11.0439 18.0136 11.0803C17.9783 11.1168 17.6077 11.9395 17.19 12.9086C16.155 15.3101 15.2474 16.7977 13.2369 19.3876C12.2378 20.6746 11.8216 21.3941 11.4629 22.4536C10.8194 24.355 10.7939 26.5411 11.391 28.6087C11.748 29.8449 12.2273 30.6467 14.1571 33.2367C15.1774 34.6061 16.0164 35.7701 16.0217 35.8234C16.0347 35.9579 13.1276 39.8709 13.0114 39.8754C12.851 39.8814 7.27338 34.1687 6.79543 33.5088C5.48758 31.7031 4.67434 29.6944 4.36599 27.5078C4.23247 26.5609 4.30987 24.2993 4.50669 23.3968C4.83188 21.9055 5.40088 20.5361 6.20516 19.3089C6.60917 18.6925 7.31407 17.9405 9.78278 15.492ZM16.1721 20.6623C16.6886 19.9857 17.3028 19.1415 17.5372 18.7862C17.7715 18.4309 17.9881 18.1403 18.0185 18.1403C18.0489 18.1403 18.4004 18.6114 18.7997 19.1872C19.199 19.7629 19.8848 20.695 20.3236 21.2586C21.6463 22.9568 21.9602 23.7967 21.9553 25.6241C21.9519 26.9041 21.7722 27.7293 21.2901 28.6786C21.0283 29.194 18.137 33.1898 18.0258 33.1898C17.9178 33.1898 15.0267 29.1973 14.77 28.6934C13.987 27.157 13.8478 25.1442 14.4061 23.4349C14.6213 22.7763 14.9379 22.2792 16.1721 20.6623ZM3.07667 35.4243C3.10796 34.7628 3.15752 34.1127 3.18669 33.9797C3.23625 33.7539 3.2781 33.7952 3.81198 34.5977C4.12662 35.0707 4.54809 35.6607 4.74854 35.9087C4.94899 36.1568 6.96804 38.2314 9.23515 40.5191L13.3573 44.6783L15.129 42.3009C16.1035 40.9933 17.1575 39.5908 17.4714 39.1843L18.042 38.4451L20.3687 41.5629L22.6953 44.6807L26.9062 40.4311C31.1029 36.1959 31.5359 35.7188 32.3692 34.4118C32.7895 33.7527 32.8113 33.7332 32.8619 33.9718C32.891 34.1092 32.9412 34.7628 32.9734 35.4243C33.0644 37.2894 32.8332 38.9877 32.2471 40.7611C30.2006 46.9525 24.4948 51.1011 18.0258 51.1011C15.1141 51.1011 12.2732 50.2531 9.88917 48.6721C8.77663 47.9344 8.48291 47.6958 7.53137 46.7575C4.46653 43.7351 2.87489 39.6856 3.07667 35.4243Z" fill="black"/>
<path d="M58.88 39.5V34.74H58.54C58.54 37.188 57.554 39.16 56.33 39.16H53.1V16.04H54.46V15.7H49.02V16.04H50.38V39.16H49.02V39.5H58.88ZM69.1815 34.4C69.1815 37.222 68.1615 39.5 66.4615 39.5C64.7615 39.5 63.7415 37.222 63.7415 34.4V20.8C63.7415 17.978 64.7615 15.7 66.4615 15.7C68.1615 15.7 69.1815 17.978 69.1815 20.8V34.4ZM61.0215 34.4C61.0215 37.392 63.2995 39.84 66.4615 39.84C69.6235 39.84 71.9015 37.392 71.9015 34.4V20.8C71.9015 17.808 69.6235 15.36 66.4615 15.36C63.2995 15.36 61.0215 17.808 61.0215 20.8V34.4ZM85.4324 27.974H86.7924V27.634H81.3524V27.974H82.7124V34.4C82.7124 37.222 81.6584 39.5 80.3324 39.5C79.0064 39.5 77.9524 37.222 77.9524 34.4V20.8C77.9524 17.978 78.9724 15.7 80.6724 15.7C82.6784 15.7 84.4124 17.876 84.4124 20.8H84.7524V15.7H84.4124C84.4124 16.516 84.0044 16.924 83.5284 16.924C82.7804 15.938 81.7604 15.36 80.3324 15.36C77.5104 15.36 75.2324 17.808 75.2324 20.8V34.4C75.2324 37.392 77.5104 39.84 80.3324 39.84C82.3044 39.84 83.0184 37.732 85.4324 37.732V27.974ZM97.0721 34.4C97.0721 37.222 96.0521 39.5 94.3521 39.5C92.6521 39.5 91.6321 37.222 91.6321 34.4V20.8C91.6321 17.978 92.6521 15.7 94.3521 15.7C96.0521 15.7 97.0721 17.978 97.0721 20.8V34.4ZM88.9121 34.4C88.9121 37.392 91.1901 39.84 94.3521 39.84C97.5141 39.84 99.7921 37.392 99.7921 34.4V20.8C99.7921 17.808 97.5141 15.36 94.3521 15.36C91.1901 15.36 88.9121 17.808 88.9121 20.8V34.4Z" fill="black"/>
</svg>
